<svg width="100" height="100" viewBox="0 0 100 100" fill="none" xmlns="http://www.w3.org/2000/svg">
<g clip-path="url(#clip0_1_2)">
<circle cx="50" cy="50" r="50" fill="#EA4200"/>
<path d="M28.1882 24.0909V75H17.4247V24.0909H28.1882ZM37.0439 75V24.0909H57.4274C61.1726 24.0909 64.2965 24.6461 66.7988 25.7564C69.3012 26.8667 71.1821 28.4079 72.4416 30.38C73.7011 32.3355 74.3308 34.5893 74.3308 37.1413C74.3308 39.13 73.9331 40.8783 73.1376 42.3864C72.3422 43.8778 71.2484 45.1042 69.8564 46.0653C68.4809 47.0099 66.9065 47.6811 65.1333 48.0788V48.576C67.0723 48.6589 68.8869 49.2057 70.5772 50.2166C72.2842 51.2275 73.6679 52.6444 74.7285 54.4673C75.7891 56.2737 76.3194 58.428 76.3194 60.9304C76.3194 63.6316 75.6483 66.0429 74.3059 68.1641C72.9802 70.2687 71.0164 71.9342 68.4146 73.1605C65.8128 74.3868 62.6061 75 58.7946 75H37.0439ZM47.8074 66.2003H56.5822C59.5817 66.2003 61.7692 65.6286 63.1447 64.4851C64.5202 63.325 65.2079 61.7839 65.2079 59.8615C65.2079 58.4529 64.8682 57.21 64.1887 56.1328C63.5093 55.0556 62.5398 54.2105 61.2804 53.5973C60.0375 52.9841 58.5543 52.6776 56.8308 52.6776H47.8074V66.2003ZM47.8074 45.3942H55.7868C57.2617 45.3942 58.5708 45.1373 59.7143 44.6236C60.8744 44.0933 61.7858 43.3475 62.4487 42.3864C63.1281 41.4252 63.4679 40.2734 63.4679 38.9311C63.4679 37.0916 62.8133 35.6084 61.5041 34.4815C60.2115 33.3546 58.372 32.7912 55.9856 32.7912H47.8074V45.3942Z" fill="#FFFEFE"/>
<path d="M85.4155 75.6463C83.7749 75.6463 82.3662 75.0663 81.1896 73.9062C80.0296 72.7296 79.4496 71.321 79.4496 69.6804C79.4496 68.0563 80.0296 66.6643 81.1896 65.5043C82.3662 64.3442 83.7749 63.7642 85.4155 63.7642C87.0064 63.7642 88.3984 64.3442 89.5916 65.5043C90.7848 66.6643 91.3814 68.0563 91.3814 69.6804C91.3814 70.7741 91.0997 71.7768 90.5362 72.6882C89.9893 73.5831 89.2685 74.304 88.3736 74.8509C87.4787 75.3812 86.4927 75.6463 85.4155 75.6463Z" fill="#FFFEFE"/>
</g>
<defs>
<clipPath id="clip0_1_2">
<rect width="100" height="100" fill="white"/>
</clipPath>
</defs>
</svg>
