<svg width="30" height="30" viewBox="0 0 30 30" fill="none" xmlns="http://www.w3.org/2000/svg">
    <path d="M11.9297 13.6038C12.221 13.3929 12.3616 13.0446 12.3616 12.5658C12.3717 12.3382 12.3248 12.1138 12.2243 11.9096C12.1339 11.7455 12 11.6083 11.8359 11.5112C11.6658 11.408 11.4769 11.3397 11.2801 11.3103C11.0658 11.2701 10.8482 11.25 10.6339 11.2533H8.28013V13.9219H10.8281C11.2667 13.9252 11.6384 13.8181 11.9297 13.6038ZM12.3248 16.0145C11.9967 15.7634 11.558 15.6395 11.0123 15.6395H8.27344V18.7868H10.9587C11.2098 18.7868 11.4408 18.7634 11.6652 18.7165C11.8774 18.675 12.0797 18.5932 12.2612 18.4754C12.4319 18.365 12.5692 18.2143 12.673 18.0201C12.7734 17.8259 12.8237 17.5781 12.8237 17.2801C12.8237 16.6875 12.6562 16.269 12.3248 16.0145ZM15 0C6.71652 0 0 6.71652 0 15C0 23.2835 6.71652 30 15 30C23.2835 30 30 23.2835 30 15C30 6.71652 23.2835 0 15 0ZM17.8962 9.60603H22.5301V10.7344H17.8962V9.60603ZM15 18.9107C14.7833 19.3221 14.4738 19.6775 14.096 19.9487C13.7009 20.2232 13.2623 20.4241 12.7969 20.5413C12.31 20.6718 11.8077 20.736 11.3036 20.7321H5.75893V9.31138H11.1496C11.6953 9.31138 12.1908 9.36161 12.6429 9.45536C13.0915 9.54911 13.4732 9.70982 13.7946 9.92745C14.1127 10.1451 14.3638 10.4364 14.5413 10.798C14.7154 11.1562 14.8058 11.6049 14.8058 12.1373C14.8058 12.7132 14.6752 13.1886 14.4141 13.5737C14.1496 13.9587 13.7679 14.2701 13.2489 14.5145C13.9554 14.7154 14.4743 15.0737 14.8158 15.5759C15.1641 16.0848 15.3348 16.6942 15.3348 17.4107C15.3348 17.9933 15.2243 18.4922 15 18.9107ZM24.3348 17.1429H18.3616C18.3616 17.7924 18.5859 18.4152 18.9241 18.75C19.2656 19.0815 19.7545 19.2489 20.394 19.2489C20.856 19.2489 21.2478 19.1317 21.5826 18.9007C21.9141 18.6696 22.115 18.4252 22.1886 18.1708H24.1908C23.8694 19.1652 23.3806 19.875 22.7176 20.3036C22.0614 20.7321 21.2578 20.9464 20.3237 20.9464C19.6708 20.9464 19.0848 20.8393 18.5592 20.635C18.0536 20.4375 17.5982 20.1362 17.2232 19.7478C16.8535 19.3489 16.5677 18.8798 16.3828 18.3683C16.1786 17.8025 16.0781 17.2065 16.0848 16.6071C16.0848 15.9877 16.1886 15.4118 16.3895 14.8761C16.7746 13.8348 17.5748 13.0011 18.596 12.5692C19.1417 12.3415 19.7277 12.2277 20.3203 12.2344C21.0234 12.2344 21.6328 12.3683 22.1618 12.6429C22.6711 12.905 23.1133 13.2808 23.4542 13.7411C23.7924 14.1998 24.0301 14.7221 24.1808 15.3114C24.3248 15.8906 24.375 16.5 24.3348 17.1429ZM20.25 13.942C19.8884 13.942 19.5837 14.0056 19.3493 14.1295C19.115 14.2533 18.9208 14.4074 18.7734 14.5848C18.6331 14.7562 18.5294 14.9544 18.4687 15.1674C18.4152 15.3449 18.3783 15.5257 18.365 15.7098H22.0647C22.0112 15.1306 21.8103 14.702 21.5424 14.4007C21.2612 14.1027 20.8092 13.942 20.25 13.942Z" fill="#F3F3F3"/>
</svg>
