<svg width="30" height="30" viewBox="0 0 30 30" fill="none" xmlns="http://www.w3.org/2000/svg">
    <path d="M14.996 9.99787C12.2417 9.99787 9.99393 12.2456 9.99393 15C9.99393 17.7544 12.2417 20.0021 14.996 20.0021C17.7503 20.0021 19.998 17.7544 19.998 15C19.998 12.2456 17.7503 9.99787 14.996 9.99787ZM29.9983 15C29.9983 12.9286 30.0171 10.876 29.9008 8.80832C29.7844 6.40669 29.2366 4.27525 27.4804 2.51907C25.7205 0.759128 23.5929 0.215011 21.1913 0.098682C19.1199 -0.0176466 17.0673 0.00111617 14.9997 0.00111617C12.9284 0.00111617 10.8758 -0.0176466 8.80815 0.098682C6.40658 0.215011 4.27517 0.762881 2.51902 2.51907C0.759114 4.27901 0.215007 6.40669 0.0986802 8.80832C-0.0176462 10.8797 0.00111615 12.9324 0.00111615 15C0.00111615 17.0676 -0.0176462 19.124 0.0986802 21.1917C0.215007 23.5933 0.762867 25.7247 2.51902 27.4809C4.27893 29.2409 6.40658 29.785 8.80815 29.9013C10.8795 30.0176 12.9321 29.9989 14.9997 29.9989C17.0711 29.9989 19.1237 30.0176 21.1913 29.9013C23.5929 29.785 25.7243 29.2371 27.4804 27.4809C29.2403 25.721 29.7844 23.5933 29.9008 21.1917C30.0208 19.124 29.9983 17.0714 29.9983 15V15ZM14.996 22.6964C10.7369 22.6964 7.29966 19.2591 7.29966 15C7.29966 10.7409 10.7369 7.30355 14.996 7.30355C19.255 7.30355 22.6923 10.7409 22.6923 15C22.6923 19.2591 19.255 22.6964 14.996 22.6964ZM23.0075 8.7858C22.0131 8.7858 21.2101 7.98276 21.2101 6.98834C21.2101 5.99392 22.0131 5.19087 23.0075 5.19087C24.0019 5.19087 24.8049 5.99392 24.8049 6.98834C24.8052 7.22447 24.7589 7.45834 24.6687 7.67655C24.5785 7.89476 24.4461 8.09303 24.2791 8.26C24.1122 8.42697 23.9139 8.55936 23.6957 8.64958C23.4775 8.73981 23.2436 8.7861 23.0075 8.7858V8.7858Z" fill="#F3F3F3"/>
</svg>
